<?xml version="1.0" encoding="UTF-8" standalone="no"?>
<!-- Created with Inkscape (http://www.inkscape.org/) -->

<svg
   xmlns:dc="http://purl.org/dc/elements/1.1/"
   xmlns:cc="http://creativecommons.org/ns#"
   xmlns:rdf="http://www.w3.org/1999/02/22-rdf-syntax-ns#"
   xmlns:svg="http://www.w3.org/2000/svg"
   xmlns="http://www.w3.org/2000/svg"
   xmlns:sodipodi="http://sodipodi.sourceforge.net/DTD/sodipodi-0.dtd"
   xmlns:inkscape="http://www.inkscape.org/namespaces/inkscape"
   width="85.411186mm"
   height="94.084633mm"
   viewBox="0 0 85.411186 94.084633"
   version="1.1"
   id="svg860"
   inkscape:version="0.92.2 (5c3e80d, 2017-08-06)"
   sodipodi:docname="tache-mediacentre1.svg">
  <defs
     id="defs854" />
  <sodipodi:namedview
     id="base"
     pagecolor="#ffffff"
     bordercolor="#666666"
     borderopacity="1.0"
     inkscape:pageopacity="0.0"
     inkscape:pageshadow="2"
     inkscape:zoom="0.35"
     inkscape:cx="-257.16446"
     inkscape:cy="-156.48799"
     inkscape:document-units="mm"
     inkscape:current-layer="layer1"
     showgrid="false"
     inkscape:window-width="1920"
     inkscape:window-height="1001"
     inkscape:window-x="-9"
     inkscape:window-y="-9"
     inkscape:window-maximized="1" />
  <metadata
     id="metadata857">
    <rdf:RDF>
      <cc:Work
         rdf:about="">
        <dc:format>image/svg+xml</dc:format>
        <dc:type
           rdf:resource="http://purl.org/dc/dcmitype/StillImage" />
        <dc:title></dc:title>
      </cc:Work>
    </rdf:RDF>
  </metadata>
  <g
     inkscape:label="Calque 1"
     inkscape:groupmode="layer"
     id="layer1"
     transform="translate(-7.1872631,-13.34459)">
    <g
       id="g2399"
       transform="matrix(1,0,0,1.0479634,196.67508,-34.83419)"
       inkscape:export-xdpi="90"
       inkscape:export-ydpi="90">
      <path
         inkscape:connector-curvature="0"
         id="path2239-8-1"
         d="M 123.87375,90.476105 A 28.322675,29.839844 74.93087 0 1 100.39884,124.32086 28.322675,29.839844 74.93087 0 1 65.508666,102.88632 28.322675,29.839844 74.93087 0 1 88.725388,68.882961 28.322675,29.839844 74.93087 0 1 123.78737,90.065865"
         style="opacity:1;vector-effect:none;fill:#fec63d;fill-opacity:1;stroke:none;stroke-width:1.9213475;stroke-linecap:butt;stroke-linejoin:round;stroke-miterlimit:4;stroke-dasharray:none;stroke-dashoffset:0;stroke-opacity:1;paint-order:markers stroke fill"
         transform="rotate(114.26157,-32.6842,13.094164)" />
      <path
         inkscape:connector-curvature="0"
         id="path2239-0-6-8"
         d="M 122.93919,61.436592 A 29.896373,28.574541 55.065772 0 1 101.19785,95.721866 29.896373,28.574541 55.065772 0 1 66.407677,72.290617 29.896373,28.574541 55.065772 0 1 87.891577,37.831952 29.896373,28.574541 55.065772 0 1 122.84072,61.008208"
         style="opacity:1;vector-effect:none;fill:#fec63d;fill-opacity:1;stroke:none;stroke-width:1.93169844;stroke-linecap:butt;stroke-linejoin:round;stroke-miterlimit:4;stroke-dasharray:none;stroke-dashoffset:0;stroke-opacity:1;paint-order:markers stroke fill"
         transform="rotate(114.26157,-32.6842,13.094164)" />
      <path
         inkscape:connector-curvature="0"
         id="path2239-5-2-1"
         d="M 77.003114,78.340403 A 20.458677,20.014002 0 0 1 61.158639,101.96038 20.458677,20.014002 0 0 1 36.955402,86.547793 20.458677,20.014002 0 0 1 52.620773,62.813763 20.458677,20.014002 0 0 1 76.939934,78.050713"
         style="opacity:1;vector-effect:none;fill:#fec63d;fill-opacity:1;stroke:none;stroke-width:1.33735347;stroke-linecap:butt;stroke-linejoin:round;stroke-miterlimit:4;stroke-dasharray:none;stroke-dashoffset:0;stroke-opacity:1;paint-order:markers stroke fill"
         transform="rotate(114.26157,-32.6842,13.094164)" />
      <path
         sodipodi:nodetypes="cscccc"
         inkscape:connector-curvature="0"
         id="path2384"
         d="m -164.20371,65.310728 c 5.24516,-0.517837 10.62396,-1.135895 12.76211,-5.946749 1.22456,-2.755254 1.93771,2.03793 1.93771,2.03793 l -1.1359,5.579253 -3.17382,0.567946 z"
         style="opacity:1;vector-effect:none;fill:#fec63d;fill-opacity:1;stroke:none;stroke-width:2.61999989;stroke-linecap:butt;stroke-linejoin:round;stroke-miterlimit:4;stroke-dasharray:none;stroke-dashoffset:0;stroke-opacity:1;paint-order:markers stroke fill" />
      <path
         sodipodi:nodetypes="ccccccc"
         inkscape:connector-curvature="0"
         id="path2386"
         d="m -116.08594,77.58482 c -1.86625,2.976563 -1.29929,5.338914 1.63003,7.5359 1.32291,1.08668 1.63002,1.748139 1.63002,1.748139 l -4.79557,-0.09449 -5.36254,-3.897879 0.99219,-3.945128 z"
         style="opacity:1;vector-effect:none;fill:#fec63d;fill-opacity:1;stroke:none;stroke-width:2.61999989;stroke-linecap:butt;stroke-linejoin:round;stroke-miterlimit:4;stroke-dasharray:none;stroke-dashoffset:0;stroke-opacity:1;paint-order:markers stroke fill" />
      <path
         inkscape:connector-curvature="0"
         id="path2388"
         d="m -163.42745,124.61923 c 2.36235,0.16537 5.40978,0.0236 7.18154,1.86626 1.77177,1.84263 2.14974,1.67727 2.14974,1.67727 l -0.11811,-4.37035 -5.12631,-2.008 z"
         style="opacity:1;vector-effect:none;fill:#fec63d;fill-opacity:1;stroke:none;stroke-width:2.61999989;stroke-linecap:butt;stroke-linejoin:round;stroke-miterlimit:4;stroke-dasharray:none;stroke-dashoffset:0;stroke-opacity:1;paint-order:markers stroke fill" />
    </g>
  </g>
</svg>
