<?xml version="1.0" encoding="UTF-8" standalone="no"?>
<!-- Created with Inkscape (http://www.inkscape.org/) -->

<svg
   xmlns:dc="http://purl.org/dc/elements/1.1/"
   xmlns:cc="http://creativecommons.org/ns#"
   xmlns:rdf="http://www.w3.org/1999/02/22-rdf-syntax-ns#"
   xmlns:svg="http://www.w3.org/2000/svg"
   xmlns="http://www.w3.org/2000/svg"
   xmlns:sodipodi="http://sodipodi.sourceforge.net/DTD/sodipodi-0.dtd"
   xmlns:inkscape="http://www.inkscape.org/namespaces/inkscape"
   width="86.977203mm"
   height="93.813179mm"
   viewBox="0 0 86.977203 93.813179"
   version="1.1"
   id="svg860"
   inkscape:version="0.92.2 (5c3e80d, 2017-08-06)"
   sodipodi:docname="tache-mediacentre3.svg">
  <defs
     id="defs854" />
  <sodipodi:namedview
     id="base"
     pagecolor="#ffffff"
     bordercolor="#666666"
     borderopacity="1.0"
     inkscape:pageopacity="0.0"
     inkscape:pageshadow="2"
     inkscape:zoom="0.35"
     inkscape:cx="-246.04387"
     inkscape:cy="-163.97427"
     inkscape:document-units="mm"
     inkscape:current-layer="layer1"
     showgrid="false"
     inkscape:window-width="1920"
     inkscape:window-height="1001"
     inkscape:window-x="-9"
     inkscape:window-y="-9"
     inkscape:window-maximized="1" />
  <metadata
     id="metadata857">
    <rdf:RDF>
      <cc:Work
         rdf:about="">
        <dc:format>image/svg+xml</dc:format>
        <dc:type
           rdf:resource="http://purl.org/dc/dcmitype/StillImage" />
        <dc:title></dc:title>
      </cc:Work>
    </rdf:RDF>
  </metadata>
  <g
     inkscape:label="Calque 1"
     inkscape:groupmode="layer"
     id="layer1"
     transform="translate(-4.24494,-11.635299)">
    <g
       id="g2285"
       transform="matrix(-0.41090297,0.90439145,-0.91167908,-0.40761835,169.07539,16.597539)"
       inkscape:export-xdpi="90"
       inkscape:export-ydpi="90">
      <path
         style="opacity:1;vector-effect:none;fill:#f53b57;fill-opacity:1;stroke:none;stroke-width:2.2253623;stroke-linecap:butt;stroke-linejoin:round;stroke-miterlimit:4;stroke-dasharray:none;stroke-dashoffset:0;stroke-opacity:1;paint-order:markers stroke fill"
         d="M 105.43531,82.86395 A 34.043331,33.303387 0 0 1 79.070034,122.16771 34.043331,33.303387 0 0 1 38.79574,96.521088 34.043331,33.303387 0 0 1 64.862988,57.027548 34.043331,33.303387 0 0 1 105.33018,82.381914"
         id="path2239"
         inkscape:connector-curvature="0" />
      <path
         style="opacity:1;vector-effect:none;fill:#f53b57;fill-opacity:1;stroke:none;stroke-width:1.70414805;stroke-linecap:butt;stroke-linejoin:round;stroke-miterlimit:4;stroke-dasharray:none;stroke-dashoffset:0;stroke-opacity:1;paint-order:markers stroke fill"
         d="M 131.63567,75.508476 A 26.069859,25.503222 0 0 1 111.44555,105.60669 26.069859,25.503222 0 0 1 80.604112,85.966902 26.069859,25.503222 0 0 1 100.56601,55.723356 26.069859,25.503222 0 0 1 131.55516,75.13934"
         id="path2239-0"
         inkscape:connector-curvature="0" />
      <path
         style="opacity:1;vector-effect:none;fill:#f53b57;fill-opacity:1;stroke:none;stroke-width:1.33735347;stroke-linecap:butt;stroke-linejoin:round;stroke-miterlimit:4;stroke-dasharray:none;stroke-dashoffset:0;stroke-opacity:1;paint-order:markers stroke fill"
         d="M 105.50519,116.21123 A 20.458677,20.014002 0 0 1 89.660715,139.83121 20.458677,20.014002 0 0 1 65.457478,124.41862 20.458677,20.014002 0 0 1 81.122849,100.68459 20.458677,20.014002 0 0 1 105.44201,115.92154"
         id="path2239-5"
         inkscape:connector-curvature="0" />
      <path
         sodipodi:nodetypes="csccccc"
         inkscape:connector-curvature="0"
         id="path2276"
         d="m 77.68499,56.807377 c 0,0 5.636285,1.387298 10.714404,1.120029 5.078121,-0.267269 10.608275,-1.819759 10.608275,-1.819759 l 6.363341,8.635132 -11.158503,5.545844 -16.437076,-4.476766 z"
         style="opacity:1;vector-effect:none;fill:#f53b57;fill-opacity:1;stroke:none;stroke-width:2.61999989;stroke-linecap:butt;stroke-linejoin:round;stroke-miterlimit:4;stroke-dasharray:none;stroke-dashoffset:0;stroke-opacity:1;paint-order:markers stroke fill" />
      <path
         sodipodi:nodetypes="czccccccc"
         inkscape:connector-curvature="0"
         id="path2278"
         d="m 109.81437,105.88558 c -1.77066,0.28398 -3.72507,0 -5.07812,2.25509 -1.35305,2.25509 -0.46773,4.54358 -0.11693,5.49573 0.35079,0.95215 -3.0402,-1.10249 -3.0402,-1.10249 l -2.138153,-3.82529 1.102483,-3.27405 4.25961,-2.35532 4.86097,0.80181 z"
         style="opacity:1;vector-effect:none;fill:#f53b57;fill-opacity:1;stroke:none;stroke-width:2.61999989;stroke-linecap:butt;stroke-linejoin:round;stroke-miterlimit:4;stroke-dasharray:none;stroke-dashoffset:0;stroke-opacity:1;paint-order:markers stroke fill" />
      <path
         style="opacity:1;vector-effect:none;fill:#f53b57;fill-opacity:1;stroke:none;stroke-width:2.61999989;stroke-linecap:butt;stroke-linejoin:round;stroke-miterlimit:4;stroke-dasharray:none;stroke-dashoffset:0;stroke-opacity:1;paint-order:markers stroke fill"
         d="m 54.488408,117.87779 c 0,0 6.12576,3.03555 8.696066,5.68707 2.570306,2.65151 3.393036,5.30733 4.853387,7.22398 2.093442,2.74755 3.93053,-1.79803 3.93053,-1.79803 l -0.67071,-7.56078 -8.137552,-9.32915 -5.345627,0.21055 z"
         id="path2287"
         inkscape:connector-curvature="0"
         sodipodi:nodetypes="czsccccc" />
    </g>
  </g>
</svg>
